<svg xmlns="http://www.w3.org/2000/svg" width="42" height="42" viewBox="0 0 42 42">
  <defs>
    <style>
      .cls-1 {
        fill: #f27474;
      }

      .cls-2 {
        fill: #fff;
      }
    </style>
  </defs>
  <g id="组_3149" data-name="组 3149" transform="translate(-350 -363)">
    <rect id="矩形_1756" data-name="矩形 1756" class="cls-1" width="42" height="42" rx="3" transform="translate(350 363)"/>
    <g id="组_3092" data-name="组 3092" transform="translate(360.16 373.16)">
      <path id="路径_2427" data-name="路径 2427" class="cls-2" d="M1029.975,816.5h0a.963.963,0,0,0-.68.281l-20.513,20.513a.963.963,0,0,0-.281.68h0a.962.962,0,0,0,.962.962h0a.963.963,0,0,0,.68-.281l20.514-20.513a.963.963,0,0,0,.281-.68h0A.962.962,0,0,0,1029.975,816.5Z" transform="translate(-1008.5 -816.5)"/>
      <path id="路径_2428" data-name="路径 2428" class="cls-2" d="M1011.594,834.1l3.543-3.543a4.461,4.461,0,0,1-.03-.5,4.551,4.551,0,0,1,4.612-4.487c.131,0,.26.009.388.019l2.24-2.24a10.824,10.824,0,0,0-2.629-.343c-6.2,0-11.218,5.253-11.218,7.052C1008.5,830.921,1009.681,832.6,1011.594,834.1Z" transform="translate(-1008.5 -818.833)"/>
      <path id="路径_2429" data-name="路径 2429" class="cls-2" d="M1021.871,838.508a11.526,11.526,0,0,0,2.647.325c6.2,0,11.218-5.645,11.218-7.052,0-.69-1.214-2.4-3.176-3.962l-3.46,3.46a4.452,4.452,0,0,1,.03.5,4.551,4.551,0,0,1-4.612,4.487c-.131,0-.26-.009-.388-.019" transform="translate(-1013.3 -820.563)"/>
    </g>
  </g>
</svg>
