<svg xmlns="http://www.w3.org/2000/svg" width="42" height="42" viewBox="0 0 42 42">
  <defs>
    <style>
      .cls-1 {
        fill: #b697d9;
      }

      .cls-2 {
        fill: #fff;
      }
    </style>
  </defs>
  <g id="组_3157" data-name="组 3157" transform="translate(-350 -363)">
    <rect id="矩形_1756" data-name="矩形 1756" class="cls-1" width="42" height="42" rx="3" transform="translate(350 363)"/>
    <g id="组_3097" data-name="组 3097" transform="translate(360.985 373.985)">
      <path id="路径_2431" data-name="路径 2431" class="cls-2" d="M1278.874,821.562h-2.858a1.183,1.183,0,0,0-1.183,1.183v9.546a1.183,1.183,0,0,0,1.183,1.183h2.858a1.23,1.23,0,0,1,.412.071l6.316,4.253a1.24,1.24,0,0,0,1.652-1.171V818.409a1.24,1.24,0,0,0-1.652-1.171l-6.316,4.253A1.231,1.231,0,0,1,1278.874,821.562Z" transform="translate(-1274.833 -817.167)"/>
      <path id="路径_2432" data-name="路径 2432" class="cls-2" d="M1298.1,821.845h0a.9.9,0,0,0,.288.651,8.553,8.553,0,0,1,0,12.414.9.9,0,0,0-.288.651h0a.887.887,0,0,0,1.48.665,10.33,10.33,0,0,0,0-15.047A.887.887,0,0,0,1298.1,821.845Z" transform="translate(-1282.134 -818.352)"/>
      <path id="路径_2433" data-name="路径 2433" class="cls-2" d="M1295.519,826.68h0a.915.915,0,0,0,.189.544,5.017,5.017,0,0,1,0,5.994.918.918,0,0,0-.189.545h0a.888.888,0,0,0,1.588.549,6.793,6.793,0,0,0,0-8.182A.888.888,0,0,0,1295.519,826.68Z" transform="translate(-1281.323 -819.871)"/>
    </g>
  </g>
</svg>
