<svg xmlns="http://www.w3.org/2000/svg" width="12" height="12" viewBox="0 0 12 12">
  <defs>
    <style>
      .cls-1 {
        fill: #909399;
      }
    </style>
  </defs>
  <path id="路径_2502" data-name="路径 2502" class="cls-1" d="M107.143,102v5.143h-3.428V102h3.428m0-.857h-3.428a.857.857,0,0,0-.857.857v5.143a.857.857,0,0,0,.857.857h3.428a.857.857,0,0,0,.857-.857V102A.857.857,0,0,0,107.143,101.143Zm0-4.287v2.572h-3.428V96.857h3.428m0-.857h-3.428a.857.857,0,0,0-.857.857v2.572a.857.857,0,0,0,.857.857h3.428a.857.857,0,0,0,.857-.857V96.857A.857.857,0,0,0,107.143,96Zm-6,.857v6H96.857v-6h4.287m0-.857H96.857a.857.857,0,0,0-.857.857v6a.857.857,0,0,0,.857.857h4.285a.857.857,0,0,0,.857-.857v-6A.855.855,0,0,0,101.143,96Zm0,9.428v1.715H96.857v-1.715h4.287m0-.857H96.857a.857.857,0,0,0-.857.857v1.715a.857.857,0,0,0,.857.857h4.285a.857.857,0,0,0,.857-.857v-1.715A.855.855,0,0,0,101.143,104.572Z" transform="translate(-96 -96)"/>
</svg>
