<svg xmlns="http://www.w3.org/2000/svg" width="12" height="12" viewBox="0 0 12 12">
  <defs>
    <style>
      .cls-1 {
        fill: #0082ef;
      }
    </style>
  </defs>
  <path id="路径_2491" data-name="路径 2491" class="cls-1" d="M156.5,118.684h.857a.429.429,0,0,1,0,.857H156.5a.429.429,0,0,1,0-.857Zm0-2.555h.857a.429.429,0,1,1,0,.857H156.5a.429.429,0,1,1,0-.857Zm-3.43,2.555h.857a.429.429,0,0,1,0,.857h-.857a.429.429,0,1,1,0-.857Zm0-2.555h.857a.429.429,0,1,1,0,.857h-.857a.429.429,0,1,1,0-.857Zm-3.43,2.555h.857a.429.429,0,0,1,0,.857h-.857a.429.429,0,0,1,0-.857Zm0-2.555h.857a.429.429,0,0,1,0,.857h-.857a.429.429,0,1,1,0-.857Zm6.43-5.159h1.714a1.715,1.715,0,0,1,1.714,1.714v7.3a1.715,1.715,0,0,1-1.714,1.714h-8.571a1.715,1.715,0,0,1-1.714-1.714v-7.3a1.715,1.715,0,0,1,1.714-1.714h1.714v-.841a.429.429,0,0,1,.857,0v.841h3.429v-.841a.429.429,0,1,1,.857,0Zm2.571,3.874H148.357v5.174a.858.858,0,0,0,.857.857h8.571a.858.858,0,0,0,.857-.857Zm0-.857v-1.334a.858.858,0,0,0-.857-.857h-1.714v.9a.429.429,0,1,1-.857,0v-.9h-3.429v.9a.429.429,0,0,1-.857,0v-.9h-1.714a.858.858,0,0,0-.857.857v1.334Z" transform="translate(-147.5 -109.7)"/>
</svg>
