<svg xmlns="http://www.w3.org/2000/svg" width="12" height="12" viewBox="0 0 12 12">
  <defs>
    <style>
      .cls-1 {
        fill: #0082ef;
      }
    </style>
  </defs>
  <g id="组_3556" data-name="组 3556" transform="translate(-98.816 -87.04)">
    <path id="路径_2492" data-name="路径 2492" class="cls-1" d="M104.816,87.871A5.169,5.169,0,1,1,99.64,93.04a5.177,5.177,0,0,1,5.176-5.169m0-.831a6,6,0,1,0,6,6,6,6,0,0,0-6-6Z" transform="translate(0)"/>
    <path id="路径_2493" data-name="路径 2493" class="cls-1" d="M386.452,384.329a.422.422,0,0,1-.3-.128l-2.282-2.282a.431.431,0,1,1,.61-.61l2.282,2.282a.433.433,0,0,1-.309.738Z" transform="translate(-280.962 -290.05)"/>
    <path id="路径_2494" data-name="路径 2494" class="cls-1" d="M495.021,282.611a.429.429,0,0,1-.429-.429v-4.248a.429.429,0,0,1,.859,0v4.241A.436.436,0,0,1,495.021,282.611Z" transform="translate(-390.205 -187.853)"/>
    <path id="路径_2495" data-name="路径 2495" class="cls-1" d="M166.965,483.675h-.648a.429.429,0,1,1,0-.859h.648a.429.429,0,1,1,0,.859Z" transform="translate(-66.085 -390.205)"/>
    <path id="路径_2496" data-name="路径 2496" class="cls-1" d="M780.846,483.675h-.64a.429.429,0,1,1,0-.859h.648a.429.429,0,0,1,.429.429A.436.436,0,0,1,780.846,483.675Z" transform="translate(-671.446 -390.205)"/>
    <path id="路径_2497" data-name="路径 2497" class="cls-1" d="M494.509,154.594h0a.429.429,0,0,1-.429-.429v-.648a.429.429,0,0,1,.429-.429h0a.429.429,0,0,1,.429.429v.648A.434.434,0,0,1,494.509,154.594Z" transform="translate(-389.7 -65.076)"/>
    <path id="路径_2498" data-name="路径 2498" class="cls-1" d="M494.509,770.018a.429.429,0,0,1-.429-.429v-.648a.429.429,0,0,1,.429-.429h0a.429.429,0,0,1,.429.429v.648a.434.434,0,0,1-.429.429Z" transform="translate(-389.7 -671.95)"/>
  </g>
</svg>
