<svg id="组_3557" data-name="组 3557" xmlns="http://www.w3.org/2000/svg" width="12" height="11.87" viewBox="0 0 12 11.87">
  <defs>
    <style>
      .cls-1 {
        fill: #909399;
      }
    </style>
  </defs>
  <path id="路径_2499" data-name="路径 2499" class="cls-1" d="M188.537,187.733h8.235a.8.8,0,0,1,.8.8v8.1a.8.8,0,0,1-.8.8h-8.235a.8.8,0,0,1-.8-.8v-8.1A.8.8,0,0,1,188.537,187.733Zm0,.8v8.235h8.235v-8.235Z" transform="translate(-185.576 -185.575)"/>
  <path id="路径_2500" data-name="路径 2500" class="cls-1" d="M9.842,1.607V.8a.8.8,0,0,0-.8-.8H.8A.8.8,0,0,0,0,.8v8.1a.8.8,0,0,0,.8.8h.8V9.039H.8V.8H9.039v.8h.8Z"/>
  <path id="路径_2501" data-name="路径 2501" class="cls-1" d="M397.755,377.706h-2.238v-2.239h-.752v2.239h-2.233v.747h2.238v2.237h.748v-2.237h2.237Z" transform="translate(-387.948 -371.082)"/>
</svg>
