<svg xmlns="http://www.w3.org/2000/svg" width="90.462" height="32.874" viewBox="0 0 90.462 32.874">
  <g id="组_4613" data-name="组 4613" transform="translate(-99.66 -32.69)">
    <path id="路径_2502" data-name="路径 2502" d="M10.04-7.15q.32,0,.51.58.15,0,.24,1.71-.02.16-.02.17a9.91,9.91,0,0,1,.06,1.17.755.755,0,0,1-.01.14q.01.11.01.22v.2q0,.69.03,1.14-.03.39-.03,1.25V-.5q-.11.56-.48.56h-.1A7.151,7.151,0,0,1,9.09-.92l-.41-.3v.16Q8.6.97,8.44.97A7.781,7.781,0,0,1,8.26-.61a6.564,6.564,0,0,1-.03-.79q0-.18-.28-.34v-.04h.01a.717.717,0,0,0,.26.13v-.87a2.413,2.413,0,0,1-.88.26q-.27,0-.35-.14v-.04l.14.03a2.288,2.288,0,0,0,1.09-.45V-4.42a2.765,2.765,0,0,1-.82.13q-.18-.03-.18-.15a.319.319,0,0,1,.1-.25q.04,0,.07.14a4.935,4.935,0,0,0,.83-.26A12.5,12.5,0,0,1,8.3-6.47a2.265,2.265,0,0,1-.66.1H7.61q-.43,0-.56-.19.03,0,.03-.01a1.238,1.238,0,0,0,.32.04,3.479,3.479,0,0,0,1.35-.34,6.957,6.957,0,0,1,1.21-.28ZM8.64-5.01a4.861,4.861,0,0,1,.66-.34q.16,0,.22.23,0,.2-.56.43a1.012,1.012,0,0,0,.79.52.277.277,0,0,1,.11.24q-.02.2-1.18,1.14v.38a.174.174,0,0,1-.03.07.123.123,0,0,1,.03.07l-.03.04a.121.121,0,0,1,.03.06q0,.02-.03.02l.03.1v.68q1.47.72,1.63.83h.04V-.91a1.926,1.926,0,0,1,.03-.31.428.428,0,0,1-.03-.15q0-.04.05-.32-.02-.78-.02-1.02v-.11q0-.04.02-.32l-.02-.05q.02-.3.02-.39v-.5q0-.28-.02-.54.02-.3.02-.35,0-1.55-.15-1.55-.14-.36-.22-.37H9.9q-.1,0-1.35.33l.02.1v.24l.04,1.21Zm-2.81-.9q.1,0,.1.62v.19q0,.28.02,3.22a.035.035,0,0,0,.04-.04v-.14h.05v.01q.08.75.08.83v.09q0,.03-.11.11H5.97q-.31,0-.31-.67v-.3q0-1.97.08-3.86ZM8.64-4.56q.01.33.01.65v.68h.03a8.4,8.4,0,0,0,.74-.7v-.03a1.344,1.344,0,0,1-.56-.69A.951.951,0,0,1,8.64-4.56Zm10.3.4a.388.388,0,0,1-.41.24h-.11a2.707,2.707,0,0,1-.72-.17l-.15-.02a4.684,4.684,0,0,1,.87.54,1.458,1.458,0,0,1,.39.8v.11q0,.48-.91.93a2.1,2.1,0,0,1-.72.11,1.5,1.5,0,0,1-1.07-.56,1.96,1.96,0,0,1-.48-1.18v-.02a.047.047,0,0,1,.05-.04h.01a6.466,6.466,0,0,1,.51.76,1.081,1.081,0,0,0,.81.47h.08a1.687,1.687,0,0,0,1.02-.41l.07-.1v-.01q0-.18-.42-.67a3.471,3.471,0,0,0-.62-.81.224.224,0,0,1-.13-.1v-.07l.04-.06q.22.05.24.05l.52-.05a3.336,3.336,0,0,0,.59.06.433.433,0,0,0,.4-.22.577.577,0,0,1,.21-.1v.01l-.11.14v.11l.04.17Zm.98-.06a10.9,10.9,0,0,1,1.79.24q.56.17.56.6v.05a.816.816,0,0,1-.4.49,1.984,1.984,0,0,1-.89.14.33.33,0,0,1-.29-.18v-.04q0-.05.06-.06h.04q0,.08.09.08a.96.96,0,0,0,.64-.43q.05,0,.06-.07v-.02a8.453,8.453,0,0,0-1.62-.5q-.28-.06-.28-.15T19.92-4.22Zm-5.76.38q.14,0,.18.55v.11a.122.122,0,0,0,.03.09q-.09.69-.2.69,0,.02-.07.06h-.11a.546.546,0,0,1-.14-.43q0-1.07.27-1.07ZM28.08-7.09q.2,0,.2,1.45v.11a10.683,10.683,0,0,1-.15,1.36h.01a4.912,4.912,0,0,1,1.11-.26h.14a2.68,2.68,0,0,1,.27.02,1.815,1.815,0,0,1,.35-.04.322.322,0,0,1,.21.1l.1-.03q.49,0,.59.73,0,.01.02.14l.01.07.02.09a1.989,1.989,0,0,0,.03.21,7.359,7.359,0,0,1-.57,2.7q-.31.91-.69.91h-.09q-.34,0-.81-.8a17.111,17.111,0,0,1-.6-1.86q-.26-.08-.27-.16v-.13q0-.17.93-.17a1.029,1.029,0,0,1,.23-.03q.25-.02.68-.05h.03a.948.948,0,0,1,.46.12l.03-.62a2.391,2.391,0,0,0-.06-.66h-.05a.488.488,0,0,1-.3-.15l-.11.03h-.06q-.2,0-.52-.03a8.2,8.2,0,0,0-1.2.34,11.893,11.893,0,0,1-.85,2.72A2.391,2.391,0,0,1,25.85.12a.162.162,0,0,1-.1.03h-.11V.1q.52-.12.96-1.04a12.467,12.467,0,0,0,.81-2.62H27.4a9.752,9.752,0,0,1-1.51.29.94.94,0,0,1-.26-.17.149.149,0,0,1-.13-.08q0-.09.24-.1a4.237,4.237,0,0,1,.53.04L27.54-4a13.312,13.312,0,0,0,.31-2.47q.01,0,.03-.1t.04-.28a.1.1,0,0,1-.03-.07v-.03q0-.12.08-.14Zm-.54.62q-.35,1.46-1.25,1.46a.923.923,0,0,1-.61-.3q-.22-.1-.22-.26a.321.321,0,0,1,.21-.09q.14.04.42.09a3.1,3.1,0,0,0,1.01-.42,2.152,2.152,0,0,1,.42-.48Zm.87,4.37q.28.43,1.19,1.7v.03h.04a9.415,9.415,0,0,0,.54-1.73v-.03h-.02a1.3,1.3,0,0,1-.58.09,6.68,6.68,0,0,1-1.17-.09Zm9.96-5.7q.39,0,.45.49v.18a2.462,2.462,0,0,1-.37,1.03,3.013,3.013,0,0,1,1.48-.42q.52.07.52.52,0,.28-.52.67a2.711,2.711,0,0,1-.69.13l-.2-.03a3.639,3.639,0,0,1,.28,1.35,4.636,4.636,0,0,1,1.02.25,1.554,1.554,0,0,1,.54.19q.34,0,.37.25v.08a.232.232,0,0,1-.2.14h-.03a1.74,1.74,0,0,0-.77-.18q-.25-.02-.43-.03-.16-.01-.23-.01-.25,0-.25.11,0,1.28-.41,1.28h-.04q-.38,0-.52-.66-.06-.27-.11-.59-.02-.11-.05-.26l-.02-.11-.02-.11h-.01q-.47.8-.92.8-.13,0-.17-.19,0-.13.23-.31h.03v.02a.281.281,0,0,0-.09.16,3.929,3.929,0,0,0,.73-1q.09-.48.19-.48h.12q.01,0,.04.03t.06.08v.31q0,.13-.01.26,0,.09.43,1.32h.04q.09-1.07.09-1.27l-.04-.49.01-.35q-.01-.14-.01-.29v-.19q-.04,0-.07-.07,0-.04.08-.04,0-.04-.06-.04v-.04a1.454,1.454,0,0,0,1.21-.71v-.07q0-.05-.17-.07a3.447,3.447,0,0,0-1.71.58.9.9,0,0,1-.22.12q-.14,0-.17-.18a2.259,2.259,0,0,1,.32-.46,2.379,2.379,0,0,0,.52-1.31q0-.24-.36-.34v-.01A.246.246,0,0,1,38.37-7.8Zm-1.93.7a.478.478,0,0,1,.34.48q0,.67-2,2.22a2.084,2.084,0,0,1-.7.34h-.03q-.04,0-.04-.05v-.01q1.19-1.22,2.02-2.01a3.526,3.526,0,0,0,.4-.53v-.21l-.1-.17Q36.33-7.07,36.44-7.1Zm-.35,1.98q.52,0,.52,1.48v.45q-.04.73-.2.73H36.3q-.01,0-.03-.02a.275.275,0,0,1-.07-.08v-.07a7.449,7.449,0,0,0,.14-1.25q-.01-.15-.01-.59V-4.5a.608.608,0,0,0-.3-.59.059.059,0,0,1,.05-.03Zm3.25,1.58q0,.03.02.31a5.2,5.2,0,0,1,.96-.09v-.01l-.98-.42Zm2.4,2.16q.48.04.48.45,0,.25-.41.25a2.932,2.932,0,0,1-.83-.26,8.934,8.934,0,0,1-1.16.08h-.46a1.234,1.234,0,0,1-.98-.29v-.02q0-.03.07-.07h.04a3.542,3.542,0,0,0,.61.07Zm-6.06.23q.2,0,.24.57a3.153,3.153,0,0,1,.07.68q-.03.16-.16.16t-.3-1.3A.14.14,0,0,1,35.68-1.15Zm2.79.16a1.73,1.73,0,0,0,.94.38q.57.1.57.37v.08q0,.26-.62.73a1.785,1.785,0,0,1-.74.23q-.68,0-.98-.89a1.626,1.626,0,0,0-.61-.56V-.69h.04a1.044,1.044,0,0,1,.71.45q.34.73.69.73h.04a1.272,1.272,0,0,0,1.04-.65q0-.01-.02-.01-1.01-.47-1.08-.82Zm9.45-6.03q.31,0,.37,1.42-.15,2.01-.57,2.01a.177.177,0,0,1-.14-.17v-.01a3.183,3.183,0,0,1,.03-.36h.03l.03.1h.01a9.953,9.953,0,0,0,.28-1.77v-.56a2.87,2.87,0,0,0-.13-.62A.124.124,0,0,1,47.92-7.02Zm1.52.14q.41,0,.41.36a.31.31,0,0,1,.02.13,7.581,7.581,0,0,1-.33,1.24,1.807,1.807,0,0,1-.09.5h.03q1.05-.42,1.11-.42h.1q.18,0,.22.27,0,.36-1.15.67a1.287,1.287,0,0,1-.45.1h-.24a.244.244,0,0,1-.15-.22v-.09l.31-1.22a3.092,3.092,0,0,0,.31-.89q0-.18-.15-.18-.81-.06-.81-.12v-.03A3.442,3.442,0,0,1,49.44-6.88Zm-3.77.07q.56.18.56.35v.04a.15.15,0,0,1-.17.17h-.04q-.18,0-.42-.39a.4.4,0,0,1-.01-.11Zm-.31,2.6q.15,0,.18.21-.07,1.07-.12,2.36v.41a5.53,5.53,0,0,0,.87-1.91,4.909,4.909,0,0,0,.17-.52h.04v.01a12.136,12.136,0,0,1-.97,3.16,1.305,1.305,0,0,0-.2.3.342.342,0,0,1-.16.06q-.15,0-.23-.23a1.017,1.017,0,0,0,.07-.42v-.69a20.039,20.039,0,0,1,.16-2.29,2.445,2.445,0,0,1-1.25.67q-.41,0-.41-.21a.009.009,0,0,0,.01-.01l.11.01h.09A2.157,2.157,0,0,0,44.97-4,1.3,1.3,0,0,1,45.36-4.21Zm4.29.7a.187.187,0,0,1,.18.2l-.03.12-.01.06-.02.08a1.581,1.581,0,0,0-.05.19v.17a4.217,4.217,0,0,1-.49,1.42.266.266,0,0,0-.07.18A17.158,17.158,0,0,1,51.41.05q.42.34.42.56-.07.25-.26.25a11.791,11.791,0,0,1-1.5-.43V.4h.04q.77.16,1.17.21A8.985,8.985,0,0,0,49.2-.55l-.28-.16a1.714,1.714,0,0,1-1.35.76,1.51,1.51,0,0,1-1.03-.31V-.29h.03a.883.883,0,0,0,.45.1,1.91,1.91,0,0,0,1.27-.55,1.324,1.324,0,0,0,.14-.16q.05-.05.05-.06-1.19-.73-1.69-.99A.533.533,0,0,1,46.98-2a7.179,7.179,0,0,1,1.74.66,5.114,5.114,0,0,0,.56-1.49h-.01a3.468,3.468,0,0,1-1.18.56h-.07q-.4-.1-.4-.2a.047.047,0,0,1,.05-.04h.26a4.618,4.618,0,0,0,1.51-.87q0-.1.15-.13ZM59.88-7.06a10.5,10.5,0,0,1,.11,2.47,5.338,5.338,0,0,1,.05.92,7.14,7.14,0,0,1,.85-.3q-.66-.54-.66-.76a.91.91,0,0,1-.15-.38h.04a1.665,1.665,0,0,0,1.04.83q.48.13.48.27v.08q0,.23-.65.37l-.97.32q.06,3.78.06,4.16v.65l-.02.04q-.28-.04-.28-.21-.14-1.98-.14-3.6v-.95a4.167,4.167,0,0,1-.95.15q-.67,0-.67-.13V-3.2A3.807,3.807,0,0,1,59-3.36l.64-.19a26.67,26.67,0,0,1,.13-3.5l.04-.01ZM56.55-5.18a.5.5,0,0,1,.56.41v.04A.307.307,0,0,1,57-4.6h-.06q-.22-.04-.22-.09v-.02h.04v-.05a.958.958,0,0,0-.42-.18l-.04-.07v-.04Q56.34-5.18,56.55-5.18Zm-.09,1.67q.19,0,.19.44.03,1.75.08,2.26a5.185,5.185,0,0,0,.82-1.45q.1-.38.18-.43v.01A10.781,10.781,0,0,1,57.25-.7q-.33.62-.53.62h-.09q-.33,0-.33-1.05l.01-1.97a3,3,0,0,1-1.52.69.255.255,0,0,1-.28-.2.351.351,0,0,1,.14-.29h.03l-.03.14v.07q.01.04.04.04a3.22,3.22,0,0,0,1.52-.73A1.361,1.361,0,0,1,56.46-3.51ZM67.01-6.59q.28,0,.28.72a8.576,8.576,0,0,1-.55,1.95,8.965,8.965,0,0,1,1.39-.34q.21.09.21.26-.05.29-.26.29h-.05a.171.171,0,0,1-.08-.03,1.1,1.1,0,0,1-.42.09v.64a3.748,3.748,0,0,1-.41,1.45l.28.28.07-.02q0,.09.27.35a.3.3,0,0,1,.04.15q0,.07-.14.18h-.11q-.13,0-.72-.62a.852.852,0,0,1-.67.33h-.1a2.07,2.07,0,0,1-1.56-1.08h.01a3.608,3.608,0,0,0,1.03.6l.45.11a.643.643,0,0,0,.56-.25A1.19,1.19,0,0,1,66-2.39a8.274,8.274,0,0,1,.16-.99q-.98.08-1.12.08h-.63q-.55,0-.55-.1,0-.17,1.26-.24a7.478,7.478,0,0,0,1.19-.22,15.6,15.6,0,0,0,.64-2.06,1.582,1.582,0,0,0-.07-.52q.05-.15.1-.15Zm2.16.45a1.859,1.859,0,0,1,.99.42.882.882,0,0,1,.16.47v.05a6.586,6.586,0,0,1-.43,1.51,3.216,3.216,0,0,0-.04.46v.06q.01.37.1.37.24-.08.39-.12a1.006,1.006,0,0,1,.15-.04v-.03h-.17a2.454,2.454,0,0,0-.32.03l-.01-.05a8.688,8.688,0,0,1,1.33-.18,4.724,4.724,0,0,1,.62-.15h.04q.19,0,.23.22v.07q0,.3-.54.3l-1.16.28v.03q.43.13.43.45.05,0,.05.15a3.062,3.062,0,0,1-.23,1.06q-.34.67-.81.67-.35,0-.79-.87a3.459,3.459,0,0,0-.75-.99,4.239,4.239,0,0,1-.77.1q-.17,0-.21-.1,0-.18.49-.22l1.67-.51a1.956,1.956,0,0,1-.08-.47,4.086,4.086,0,0,1,.42-1.61q.05-.19.08-.32a1.25,1.25,0,0,0,.02-.13q0-.47-.94-.75l-.06-.09Q69.03-6.12,69.17-6.14ZM66.42-2.39q0,.26.41.55h.02a4.11,4.11,0,0,0,.45-1.74,4.96,4.96,0,0,0-.7.15,3.458,3.458,0,0,0-.18,1Zm2.05.44q.24,0,1.33,1.23a.273.273,0,0,0,.17.1q.33,0,.58-.91.03-.14.05-.24a.6.6,0,0,0,.02-.1q0-.22-.34-.31a3.287,3.287,0,0,0-.33-.14q-.99.24-1.48.33Zm9.57-6.36a.493.493,0,0,1,.49.39v.13a.226.226,0,0,1-.21.16h-.06a.738.738,0,0,1-.21-.09.327.327,0,0,1,.02-.08,1.253,1.253,0,0,0-.23-.28.222.222,0,0,0-.01-.07A.2.2,0,0,1,78.04-8.31ZM79.6-7.17a.174.174,0,0,1,.11.17q0,.19-.7.41A7.245,7.245,0,0,1,76.76-6H76.7a.973.973,0,0,1-.8-.26.383.383,0,0,1-.03-.12l.03-.02a1.87,1.87,0,0,0,.34.14h.24a10.823,10.823,0,0,0,2.99-.88Q79.49-7.17,79.6-7.17ZM77.52-6.05a1.2,1.2,0,0,1,.22.79v.34q-.08,1.1-.43,1.1h-.05a.174.174,0,0,1-.12-.17,4.79,4.79,0,0,0,.29-1.91Q77.48-6.05,77.52-6.05Zm1.8.61q.12,0,.15.22,0,.51-1.88,1.73a1.524,1.524,0,0,1-.37.23v.02h.02q1.26-.42,2.67-.94h.1q.04,0,.11.1v.13q0,.21-2.19.87a2.805,2.805,0,0,1,.08.76v.18A3.982,3.982,0,0,1,76.94.4a2.475,2.475,0,0,1-1.36.68h-.03V1.05A2.222,2.222,0,0,0,76.83-.03a6.375,6.375,0,0,0,.62-1.28,8.644,8.644,0,0,0,.25-1.67q-.05,0-1.31.32-.17-.06-.16-.18t.51-.46q2.49-1.55,2.49-1.97V-5.3l-.11-.01h-.09q-.1-.01-.15-.01h-.04v-.04A2.458,2.458,0,0,1,79.32-5.44Zm9.75-.71q.25,0,.31.39v.13q0,.22-.58.81h.02a.968.968,0,0,1,.29-.12.279.279,0,0,1,.31.32q0,.26-.58.41a4.713,4.713,0,0,1-.91.35,1.924,1.924,0,0,0-.19-.04q0,.31-.2.31h-.03q-.23-.05-.23-.23v-.21a4.424,4.424,0,0,0-.21-1.87q-.03,0-.03-.08t.12-.13q.42.16.53,1.58v.15q.17,0,.48-.42.83-.8.83-.96v-.05l-1.2.04q-.23,0-.23-.15a3.568,3.568,0,0,1,.95-.17A1.952,1.952,0,0,1,89.07-6.15ZM87.69-4.28q.04,0,.07-.06h-.02q-.05.02-.05.04Zm.79,1.98q.34,0,.63,1.04.04,0,.04.08h.02V-1.3h.04a1.975,1.975,0,0,0,.28.64q0-.33.18-.33a2.418,2.418,0,0,0,.93-.51,1.323,1.323,0,0,0,.48-.43v-.02h-.03a1.616,1.616,0,0,1-.21-.01,6.447,6.447,0,0,0-1.07.22l-.33.02a.562.562,0,0,0-.11.01l-.05.01h-.03q-.1-.03-.1-.06v-.05q0-.13.79-.26a2.531,2.531,0,0,1,1.03-.23h.31q.19,0,.29.28,0,.51-.76.99v.01q.9,0,1,.36l.03.09q0,.3-.51.35A3.327,3.327,0,0,0,90.4-.4q-.84,0-.84-.11l.07.22V-.2q-.05.32-.29.32-.4,0-.79-2.01a.963.963,0,0,0-.14-.28v-.07Q88.41-2.29,88.48-2.3Zm-1.1.28a.3.3,0,0,1,.16.28v.09q0,.24-.52.76a3.834,3.834,0,0,1,.42-.03.282.282,0,0,1,.24.28v.07q0,.23-.31.27h-.34a2.648,2.648,0,0,0-.87.26h-.03q-.22-.04-.22-.21V-.33q0-.19,1.21-1.31v-.01a10.829,10.829,0,0,1-1.56.26q-.26-.02-.26-.08a2.543,2.543,0,0,1,.83-.27,6.557,6.557,0,0,1,1.11-.28Zm-2.91.07q.4.08.89,1.17a5.019,5.019,0,0,0,.52.9q.03.01.03.07V.23q0,.16-.23.21-.16,0-.54-.77-.13-.34-.25-.63-.09-.21-.16-.37a1.311,1.311,0,0,0-.41-.49l-.01-.04q.03-.09.05-.09Zm10.64-3.4q-.29,2.86-.61,4.48h-.32l.07-.51a31.328,31.328,0,0,1,.5-3.97l.18-.09ZM94.28-.11q.36.12.36.31a.457.457,0,0,1-.43.32Q93.85.36,94,.08l.21-.26Q94-.05,94.28-.11Z" transform="translate(94 41)"/>
    <g id="组_3649" data-name="组 3649" transform="matrix(0.995, 0.105, -0.105, 0.995, -430.77, -541.628)">
      <path id="路径_2501" data-name="路径 2501" d="M590.491,539.146a58.668,58.668,0,0,1,10.05-5.429l1.305-.585,1.329-.528,2.66-1.054c1.794-.646,3.6-1.26,5.4-1.877a154.13,154.13,0,0,1,22.266-5.208c1.886-.286,3.765-.617,5.656-.867l5.687-.644c.948-.1,1.895-.224,2.844-.313l2.854-.2,5.709-.4c.95-.085,1.9-.087,2.858-.119l2.86-.082,5.721-.162,11.445.142-.015.439-11.428-.2-5.713.136-2.857.068c-.952.028-1.906.026-2.855.106l-5.7.374-2.852.187c-.948.084-1.894.2-2.841.3l-5.682.617c-1.889.24-3.768.562-5.653.839a154.048,154.048,0,0,0-22.266,5.1c-1.805.608-3.613,1.213-5.408,1.85l-2.662,1.041-1.331.521-1.307.578a58.658,58.658,0,0,0-10.069,5.378Z"/>
    </g>
  </g>
</svg>
